<?xml version="1.0" standalone="no"?>
<!DOCTYPE svg PUBLIC "-//W3C//DTD SVG 1.1//EN" "http://www.w3.org/Graphics/SVG/1.1/DTD/svg11.dtd">
<svg xmlns="http://www.w3.org/2000/svg" width="334" height="86" viewBox="0 0 334 86" fill="none">
<path fill-rule="evenodd" clip-rule="evenodd" d="M1.23811 45.933L37.2808 81.8855C38.794 83.3949 41.4078 83.3949 43.0586 81.8855L79.1013 45.933C80.7521 44.4235 80.7521 41.8163 79.1013 40.1696L43.0586 4.21719C41.5454 2.57051 38.9316 2.57051 37.2808 4.21719L1.23811 40.1696C-0.412703 41.6791 -0.412703 44.2863 1.23811 45.933ZM22.2289 62.9563L60.5316 63.0335V22.679H22.2289C21.3718 22.679 20.6576 23.4082 20.6576 24.2833V61.352C20.6576 62.2271 21.3718 62.9563 22.2289 62.9563Z" fill="#2824E5"/>
<path d="M58.3699 62.0725L40.8576 44.9472C39.7571 43.8494 39.7571 42.2027 40.8576 41.105L58.4663 23.5404C59.5668 22.4426 61.3528 22.3683 62.4534 23.4661L79.0275 40.0402C80.6783 41.6869 80.9491 44.1237 79.0275 46.0453L62.6936 62.3127C61.593 63.4105 59.5709 63.2736 58.3699 62.0725Z" fill="white"/>
<path d="M148.627 66.7964H137.398C136.987 66.7964 136.576 66.6592 136.302 66.2478L120.007 46.2226V65.562C120.007 66.3849 119.459 66.9336 118.638 66.9336H108.641C107.82 66.9336 107.272 66.3849 107.272 65.562V5.21216C107.272 4.38921 107.82 3.84058 108.641 3.84058H118.638C119.459 3.84058 120.007 4.38921 120.007 5.21216V41.8335L136.302 22.9056C136.576 22.6313 136.987 22.4942 137.398 22.4942H148.079C149.311 22.4942 149.859 23.8657 149.174 24.8259L133.016 43.4794L149.722 64.6019C150.407 65.4248 149.859 66.7964 148.627 66.7964Z" fill="white"/>
<path d="M190.665 22.4946H199.155C199.977 22.4946 200.525 23.0432 200.525 23.8662V65.5624C200.525 66.3854 199.977 66.934 199.155 66.934H189.296C188.475 66.934 187.927 66.3854 187.927 65.5624V61.1733C186.42 63.2307 184.23 64.7395 181.354 65.9739C178.478 67.2083 175.329 67.6198 171.905 67.6198C165.332 67.6198 160.129 65.5624 156.021 61.3105C152.05 57.0586 149.996 51.5722 149.996 44.7143C149.996 37.7192 152.187 32.2328 156.432 27.9809C160.677 23.729 166.291 21.6716 173.275 21.6716C176.561 21.6716 179.574 22.2203 182.175 23.3175C184.914 24.4148 187.105 25.9235 188.748 27.9809L189.433 23.729C189.433 22.9061 189.981 22.4946 190.665 22.4946ZM166.154 53.7668C168.482 56.0985 171.495 57.1957 175.192 57.1957C178.889 57.1957 182.039 56.0985 184.366 53.9039C186.694 51.7094 187.927 48.6919 187.927 44.9886V44.1657C187.927 40.5995 186.831 37.7192 184.503 35.5247C182.175 33.3301 179.163 32.2328 175.466 32.2328C171.768 32.2328 168.756 33.3301 166.428 35.6618C164.1 37.9935 163.004 41.011 163.004 44.8514C162.731 48.4176 163.963 51.4351 166.154 53.7668Z" fill="white"/>
<path d="M246.946 22.4946H255.436C256.258 22.4946 256.806 23.0432 256.806 23.8662V65.5624C256.806 66.3854 256.258 66.934 255.436 66.934H245.577C244.755 66.934 244.208 66.3854 244.208 65.5624V61.1733C242.701 63.2307 240.51 64.7395 237.635 65.9739C234.759 67.2083 231.609 67.6198 228.186 67.6198C221.613 67.6198 216.41 65.5624 212.302 61.3105C208.33 57.0586 206.276 51.5722 206.276 44.7143C206.276 37.7192 208.467 32.2328 212.712 27.9809C216.957 23.729 222.572 21.6716 229.555 21.6716C232.842 21.6716 235.854 22.2203 238.456 23.3175C241.195 24.4148 243.386 25.9235 245.029 27.9809L245.714 23.729C245.714 22.9061 246.262 22.4946 246.946 22.4946ZM222.435 53.7668C224.763 56.0985 227.775 57.1957 231.473 57.1957C235.17 57.1957 238.319 56.0985 240.647 53.9039C242.975 51.7094 244.208 48.6919 244.208 44.9886V44.1657C244.208 40.5995 243.112 37.7192 240.784 35.5247C238.456 33.3301 235.444 32.2328 231.746 32.2328C228.049 32.2328 225.037 33.3301 222.709 35.6618C220.381 37.9935 219.285 41.011 219.285 44.8514C219.011 48.4176 220.244 51.4351 222.435 53.7668Z" fill="white"/>
<path d="M266.704 22.731C265.948 22.731 265.335 23.344 265.335 24.1003V67.755C265.335 73.4594 264.279 75.3388 258.997 75.5889C258.242 75.6247 257.625 76.2318 257.625 76.9882V84.6491C257.625 85.378 258.198 85.9823 258.926 85.9948C272.843 86.2342 277.053 78.2288 277.053 67.755V24.1003C277.053 23.344 276.44 22.731 275.684 22.731H266.704Z" fill="white"/>
<path d="M323.561 22.4946H332.051C332.873 22.4946 333.42 23.0432 333.42 23.8662V65.5624C333.42 66.3854 332.873 66.934 332.051 66.934H322.192C321.37 66.934 320.822 66.3854 320.822 65.5624V61.1733C319.316 63.2307 317.125 64.7395 314.249 65.9739C311.374 67.2083 308.224 67.6198 304.801 67.6198C298.228 67.6198 293.024 65.5624 288.916 61.3105C284.945 57.0586 282.891 51.5722 282.891 44.7143C282.891 37.7192 285.082 32.2328 289.327 27.9809C293.572 23.729 299.186 21.6716 306.17 21.6716C309.457 21.6716 312.469 22.2203 315.071 23.3175C317.81 24.4148 320.001 25.9235 321.644 27.9809L322.329 23.729C322.329 22.9061 322.876 22.4946 323.561 22.4946ZM299.05 53.7668C301.377 56.0985 304.39 57.1957 308.087 57.1957C311.785 57.1957 314.934 56.0985 317.262 53.9039C319.59 51.7094 320.822 48.6919 320.822 44.9886V44.1657C320.822 40.5995 319.727 37.7192 317.399 35.5247C315.071 33.3301 312.058 32.2328 308.361 32.2328C304.664 32.2328 301.651 33.3301 299.323 35.6618C296.995 37.9935 295.9 41.011 295.9 44.8514C295.763 48.4176 296.859 51.4351 299.05 53.7668Z" fill="white"/>
<path d="M270.36 16.0476L263.513 9.18963C262.966 8.641 262.966 7.81804 263.513 7.26941L270.36 0.411476C270.908 -0.137159 271.729 -0.137159 272.277 0.411476L279.124 7.26941C279.672 7.81804 279.672 8.641 279.124 9.18963L272.277 16.0476C271.729 16.5962 270.908 16.5962 270.36 16.0476Z" fill="#2824E5"/>
</svg>